<svg xmlns="http://www.w3.org/2000/svg" xmlns:xlink="http://www.w3.org/1999/xlink" width="1080" zoomAndPan="magnify" viewBox="0 0 810 809.999993" height="1080" preserveAspectRatio="xMidYMid meet" version="1.0"><defs><g/></defs><g fill="#006949" fill-opacity="1"><g transform="translate(141.536202, 602.896056)"><g><path d="M 561.8125 -130.765625 C 568.09375 -130.765625 571.234375 -122.265625 571.234375 -105.265625 C 571.234375 -96.035156 567.351562 -84.863281 559.59375 -71.75 C 551.84375 -58.632812 541.78125 -46.628906 529.40625 -35.734375 C 517.03125 -24.835938 503.269531 -15.878906 488.125 -8.859375 C 472.976562 -1.847656 457.003906 1.65625 440.203125 1.65625 C 423.398438 1.65625 410.285156 -3.789062 400.859375 -14.6875 C 391.441406 -25.582031 386.734375 -37.769531 386.734375 -51.25 C 386.734375 -64.726562 388.945312 -79.960938 393.375 -96.953125 C 397.8125 -113.953125 402.617188 -131.6875 407.796875 -150.15625 C 421.828125 -199.28125 429.03125 -233.816406 429.40625 -253.765625 C 429.40625 -262.253906 428.296875 -268.804688 426.078125 -273.421875 C 423.859375 -278.046875 419.609375 -280.359375 413.328125 -280.359375 C 402.242188 -280.359375 390.421875 -273.707031 377.859375 -260.40625 C 365.304688 -247.113281 353.488281 -230.125 342.40625 -209.4375 C 316.925781 -162.15625 303.445312 -115.984375 301.96875 -70.921875 C 302.707031 -65.742188 303.441406 -60.570312 304.171875 -55.40625 C 304.910156 -50.238281 305.28125 -44.695312 305.28125 -38.78125 C 305.28125 -26.957031 299.460938 -16.148438 287.828125 -6.359375 C 276.191406 3.421875 263.175781 8.3125 248.78125 8.3125 C 240.28125 8.3125 234 4.15625 229.9375 -4.15625 C 225.875 -12.46875 223.84375 -22.71875 223.84375 -34.90625 C 223.84375 -47.09375 226.613281 -63.710938 232.15625 -84.765625 C 237.695312 -105.828125 243.789062 -128.175781 250.4375 -151.8125 C 268.164062 -214.238281 277.210938 -260.78125 277.578125 -291.4375 C 277.578125 -306.945312 275.640625 -319.132812 271.765625 -328 C 267.890625 -336.863281 260.410156 -341.296875 249.328125 -341.296875 C 229.378906 -341.296875 209.613281 -327.078125 190.03125 -298.640625 C 170.457031 -270.203125 152.914062 -226.0625 137.40625 -166.21875 C 133.34375 -150.707031 130.203125 -137.222656 127.984375 -125.765625 L 127.4375 -115.25 C 134.457031 -81.257812 137.96875 -59.09375 137.96875 -48.75 C 137.96875 -27.332031 130.394531 -12.929688 115.25 -5.546875 C 108.226562 -2.210938 101.484375 0.925781 95.015625 3.875 C 88.554688 6.832031 81.632812 8.3125 74.25 8.3125 C 55.78125 8.3125 46.546875 -9.320312 46.546875 -44.59375 C 46.546875 -79.875 56.332031 -148.859375 75.90625 -251.546875 C 82.925781 -288.484375 86.4375 -309.164062 86.4375 -313.59375 C 86.4375 -343.519531 78.863281 -358.484375 63.71875 -358.484375 C 58.539062 -358.484375 53.828125 -357.003906 49.578125 -354.046875 C 45.335938 -351.085938 41.09375 -347.945312 36.84375 -344.625 C 32.59375 -341.300781 28.25 -338.160156 23.8125 -335.203125 C 19.382812 -332.253906 14.304688 -330.78125 8.578125 -330.78125 C 2.859375 -330.78125 0 -335.765625 0 -345.734375 C 0 -366.046875 9.414062 -382.664062 28.25 -395.59375 C 46.351562 -408.894531 68.332031 -415.546875 94.1875 -415.546875 C 127.4375 -415.546875 147.015625 -400.03125 152.921875 -369 C 154.398438 -359.769531 155.507812 -349.984375 156.25 -339.640625 C 183.582031 -390.984375 218.117188 -416.65625 259.859375 -416.65625 C 305.285156 -416.65625 331.328125 -394.863281 337.984375 -351.28125 C 340.191406 -338.71875 341.113281 -325.234375 340.75 -310.828125 L 340.75 -306.390625 C 364.757812 -339.640625 393.203125 -356.265625 426.078125 -356.265625 C 472.617188 -356.265625 495.890625 -328.191406 495.890625 -272.046875 C 495.890625 -247.671875 492.101562 -219.132812 484.53125 -186.4375 C 476.957031 -153.75 471.414062 -130.296875 467.90625 -116.078125 C 464.394531 -101.859375 462.640625 -90.867188 462.640625 -83.109375 C 462.640625 -69.078125 467.53125 -62.0625 477.3125 -62.0625 C 487.101562 -62.0625 510.46875 -81.265625 547.40625 -119.671875 C 554.0625 -127.066406 558.863281 -130.765625 561.8125 -130.765625 Z M 561.8125 -130.765625 "/></g></g></g></svg>